<svg version="1.0" xmlns="http://www.w3.org/2000/svg" width="682.667" height="682.667" viewBox="0 0 512 512"><path d="M0 256v256h512V0H0v256zM294.8 73.6c11.9 6.4 22 12 22.5 12.3.8.8-116 226.9-124.3 240.6-2.7 4.4-4.7 8.1-4.5 8.3.2.2 19.9-.6 43.8-1.9l43.4-2.3.6-27c.4-14.8.7-33.8.7-42.3 0-11.4.3-15.5 1.3-15.8 1.4-.5 47.6-4.5 52.4-4.5h3.3v86.5l30.6-1.5c20.6-1 30.8-1.2 31-.5.3.6.3 12.9.2 27.5l-.3 26.5-30.7.3-30.8.2-.2 35.3-.3 35.2-28.7.3-28.8.2v-71H133.5l-8.3-14.5-8.3-14.4 18.6-37.1c30.1-60.3 74.4-154.9 110.7-237 3.3-7.4 6.2-13.8 6.5-14.3.2-.4 4.9-.7 10.4-.7h10l21.7 11.6z"/></svg>