<?xml version="1.0" standalone="no"?>
<!DOCTYPE svg PUBLIC "-//W3C//DTD SVG 20010904//EN"
 "http://www.w3.org/TR/2001/REC-SVG-20010904/DTD/svg10.dtd">
<svg version="1.0" xmlns="http://www.w3.org/2000/svg"
 width="512.000000pt" height="512.000000pt" viewBox="0 0 512.000000 512.000000"
 preserveAspectRatio="xMidYMid meet">

<g transform="translate(0.000000,512.000000) scale(0.100000,-0.100000)"
fill="#000000" stroke="none">
<path d="M0 2560 l0 -2560 2560 0 2560 0 0 2560 0 2560 -2560 0 -2560 0 0
-2560z m2948 1824 c119 -64 220 -120 225 -123 8 -8 -1160 -2269 -1243 -2406
-27 -44 -47 -81 -45 -83 2 -2 199 6 438 19 l434 23 6 270 c4 148 7 338 7 423
0 114 3 155 13 158 14 5 476 45 524 45 l33 0 0 -432 0 -433 306 15 c206 10
308 12 310 5 3 -6 3 -129 2 -275 l-3 -265 -307 -3 -308 -2 -2 -353 -3 -352
-287 -3 -288 -2 0 355 0 355 -712 0 -713 0 -83 145 -83 144 186 371 c301 603
744 1549 1107 2370 33 74 62 138 65 143 2 4 49 7 104 7 l100 0 217 -116z"/>
</g>
</svg>
